<svg width="835" height="100" viewBox="0 0 835 100" fill="none" xmlns="http://www.w3.org/2000/svg">
<g clip-path="url(#clip0)">
<rect width="835" height="100" fill="white"/>
<rect width="103" height="100" rx="5" fill="#5FB536"/>
<path d="M91.2 83H77.6V33.3L57.2 83H45.7L25.3 33.7V83H12.1V12.1H30.3L51.6 63.3L72.4 12.1H91.2V83Z" fill="white"/>
<path d="M128.3 68.7C130.767 71.1667 133.733 72.4 137.2 72.4C140.667 72.4 143.6 71.1667 146 68.7C148.467 66.2333 149.7 62.8 149.7 58.4C149.7 54 148.467 50.5667 146 48.1C143.6 45.6333 140.667 44.4 137.2 44.4C133.733 44.4 130.767 45.6333 128.3 48.1C125.9 50.5667 124.7 54 124.7 58.4C124.7 62.8 125.9 66.2333 128.3 68.7ZM118.7 39.7C123.633 34.7667 129.8 32.3 137.2 32.3C144.6 32.3 150.733 34.7667 155.6 39.7C160.533 44.6333 163 50.8667 163 58.4C163 65.9333 160.533 72.1667 155.6 77.1C150.733 82.0333 144.6 84.5 137.2 84.5C129.8 84.5 123.633 82.0333 118.7 77.1C113.833 72.1667 111.4 65.9333 111.4 58.4C111.4 50.8667 113.833 44.6333 118.7 39.7ZM186.798 54.7V83H173.498V33.8H186.398V39.9C187.798 37.5 189.798 35.6667 192.398 34.4C194.998 33.1333 197.732 32.5 200.598 32.5C206.398 32.5 210.798 34.3333 213.798 38C216.865 41.6 218.398 46.2667 218.398 52V83H205.098V54.3C205.098 51.3667 204.332 49 202.798 47.2C201.332 45.4 199.065 44.5 195.998 44.5C193.198 44.5 190.965 45.4667 189.298 47.4C187.632 49.3333 186.798 51.7667 186.798 54.7ZM248.297 19.1V33.8H258.197V45.6H248.297V66.2C248.297 68.2667 248.764 69.7333 249.697 70.6C250.63 71.4667 252.097 71.9 254.097 71.9C255.897 71.9 257.264 71.7667 258.197 71.5V82.5C256.264 83.3 253.764 83.7 250.697 83.7C245.897 83.7 242.097 82.3667 239.297 79.7C236.497 76.9667 235.097 73.2333 235.097 68.5V45.6H226.197V33.8H228.697C231.164 33.8 233.03 33.1 234.297 31.7C235.63 30.2333 236.297 28.3333 236.297 26V19.1H248.297ZM280.353 54.1V83H267.053V10.6H280.353V37.9C283.353 34.3 287.786 32.5 293.653 32.5C299.653 32.5 304.186 34.3333 307.253 38C310.386 41.6 311.953 46.2667 311.953 52V83H298.653V54.3C298.653 51.3667 297.886 49 296.353 47.2C294.886 45.4 292.62 44.5 289.553 44.5C286.82 44.5 284.62 45.4 282.953 47.2C281.353 49 280.486 51.3 280.353 54.1ZM338.752 83H325.452V10.6H338.752V83ZM369.991 102.4H355.891L367.491 76.8L346.591 33.8H361.491L374.591 62.6L386.691 33.8H400.891L369.991 102.4ZM476.448 61.1L489.248 12.1H503.348L483.748 83H469.548L453.348 32.5L437.148 83H422.748L403.048 12.1H417.648L430.648 60.9L446.348 12.1H460.648L476.448 61.1ZM538.655 33.6V47C537.321 46.7333 535.988 46.6 534.655 46.6C530.855 46.6 527.788 47.7 525.455 49.9C523.121 52.0333 521.955 55.5667 521.955 60.5V83H508.655V33.8H521.555V41.1C523.955 35.9667 528.621 33.4 535.555 33.4C536.288 33.4 537.321 33.4667 538.655 33.6ZM545.303 69.6C545.303 65.4 546.67 62.0333 549.403 59.5C552.136 56.9667 555.67 55.3667 560.003 54.7L572.103 52.9C574.57 52.5667 575.803 51.4 575.803 49.4C575.803 47.5333 575.07 46 573.603 44.8C572.203 43.6 570.17 43 567.503 43C564.703 43 562.47 43.7667 560.803 45.3C559.203 46.8333 558.303 48.7333 558.103 51L546.303 48.5C546.77 44.2333 548.87 40.4667 552.603 37.2C556.336 33.9333 561.27 32.3 567.403 32.3C574.736 32.3 580.136 34.0667 583.603 37.6C587.07 41.0667 588.803 45.5333 588.803 51V75.2C588.803 78.1333 589.003 80.7333 589.403 83H577.203C576.87 81.5333 576.703 79.5667 576.703 77.1C573.57 81.9667 568.736 84.4 562.203 84.4C557.136 84.4 553.036 82.9333 549.903 80C546.836 77.0667 545.303 73.6 545.303 69.6ZM565.003 74.5C568.136 74.5 570.703 73.6333 572.703 71.9C574.77 70.1 575.803 67.1667 575.803 63.1V60.9L564.703 62.6C560.636 63.2 558.603 65.2667 558.603 68.8C558.603 70.4 559.17 71.7667 560.303 72.9C561.436 73.9667 563.003 74.5 565.003 74.5ZM615.509 102H602.209V33.8H615.109V39.8C616.309 37.8 618.243 36.1333 620.909 34.8C623.576 33.4 626.676 32.7 630.209 32.7C637.209 32.7 642.743 35.1 646.809 39.9C650.876 44.6333 652.909 50.7667 652.909 58.3C652.909 65.8333 650.743 72.0333 646.409 76.9C642.143 81.7667 636.576 84.2 629.709 84.2C623.176 84.2 618.443 82.2 615.509 78.2V102ZM636.309 68.6C638.643 66.0667 639.809 62.6667 639.809 58.4C639.809 54.1333 638.643 50.7667 636.309 48.3C634.043 45.8333 631.143 44.6 627.609 44.6C624.076 44.6 621.143 45.8667 618.809 48.4C616.476 50.8667 615.309 54.2 615.309 58.4C615.309 62.6 616.476 65.9667 618.809 68.5C621.143 71.0333 624.076 72.3 627.609 72.3C631.143 72.3 634.043 71.0667 636.309 68.6ZM676.74 102H663.44V33.8H676.34V39.8C677.54 37.8 679.473 36.1333 682.14 34.8C684.807 33.4 687.907 32.7 691.44 32.7C698.44 32.7 703.973 35.1 708.04 39.9C712.107 44.6333 714.14 50.7667 714.14 58.3C714.14 65.8333 711.973 72.0333 707.64 76.9C703.373 81.7667 697.807 84.2 690.94 84.2C684.407 84.2 679.673 82.2 676.74 78.2V102ZM697.54 68.6C699.873 66.0667 701.04 62.6667 701.04 58.4C701.04 54.1333 699.873 50.7667 697.54 48.3C695.273 45.8333 692.373 44.6 688.84 44.6C685.307 44.6 682.373 45.8667 680.04 48.4C677.707 50.8667 676.54 54.2 676.54 58.4C676.54 62.6 677.707 65.9667 680.04 68.5C682.373 71.0333 685.307 72.3 688.84 72.3C692.373 72.3 695.273 71.0667 697.54 68.6ZM734.37 52.8H756.37C756.237 50.0667 755.237 47.7667 753.37 45.9C751.57 44.0333 748.904 43.1 745.37 43.1C742.17 43.1 739.57 44.1 737.57 46.1C735.57 48.1 734.504 50.3333 734.37 52.8ZM757.67 65.6L768.77 68.9C767.437 73.4333 764.804 77.1667 760.87 80.1C757.004 83.0333 752.17 84.5 746.37 84.5C739.304 84.5 733.304 82.1333 728.37 77.4C723.437 72.6 720.97 66.2 720.97 58.2C720.97 50.6 723.37 44.4 728.17 39.6C732.97 34.7333 738.637 32.3 745.17 32.3C752.77 32.3 758.704 34.5667 762.97 39.1C767.304 43.6333 769.47 49.8667 769.47 57.8C769.47 58.3333 769.437 58.9333 769.37 59.6C769.37 60.2667 769.37 60.8 769.37 61.2L769.27 61.9H734.07C734.204 65.1 735.47 67.7667 737.87 69.9C740.27 72.0333 743.137 73.1 746.47 73.1C752.137 73.1 755.87 70.6 757.67 65.6ZM826.844 10.6V74.1C826.844 77.3667 826.977 80.3333 827.244 83H814.544C814.21 81.3333 814.044 79.4333 814.044 77.3C812.91 79.3667 811.11 81.0333 808.644 82.3C806.244 83.5667 803.444 84.2 800.244 84.2C793.244 84.2 787.477 81.7667 782.944 76.9C778.477 71.9667 776.244 65.7667 776.244 58.3C776.244 51.0333 778.444 44.9333 782.844 40C787.31 35.0667 792.977 32.6 799.844 32.6C806.91 32.6 811.544 34.6333 813.744 38.7V10.6H826.844ZM789.644 58.3C789.644 62.6333 790.777 66.0667 793.044 68.6C795.31 71.0667 798.244 72.3 801.844 72.3C805.377 72.3 808.277 71.0333 810.544 68.5C812.81 65.9667 813.944 62.5333 813.944 58.2C813.944 53.9333 812.81 50.6 810.544 48.2C808.277 45.7333 805.377 44.5 801.844 44.5C798.31 44.5 795.377 45.7333 793.044 48.2C790.777 50.6667 789.644 54.0333 789.644 58.3Z" fill="#313131"/>
</g>
<defs>
<clipPath id="clip0">
<rect width="835" height="100" fill="white"/>
</clipPath>
</defs>
</svg>
